<svg xmlns="http://www.w3.org/2000/svg" viewBox="0 0 64 64" width="64" height="64">
<defs>
  <linearGradient id="Id-Orange" x1="0" y1="0" x2="1" y2="1">
    <stop offset="0" stop-color="#FFB36B" />
    <stop offset="1" stop-color="#E8590C" />
  </linearGradient>
  <linearGradient id="Id-Teal" x1="0" y1="0" x2="1" y2="1">
    <stop offset="0" stop-color="#4FD8E6" />
    <stop offset="1" stop-color="#0B7F99" />
  </linearGradient>
</defs>
  <ellipse cx="28" cy="30" rx="23" ry="23" fill="#003A48" fill-opacity="0.149" />
  <ellipse cx="26" cy="28" rx="23" ry="23" fill="url(#Id-Teal)" />
  <path d="M3,28 H49 M26,5 C16,15 16,41 26,51 M26,5 C36,15 36,41 26,51 M8,16 H44 M8,40 H44" fill="none" stroke="#FFFFFF" stroke-opacity="0.702" stroke-width="2.4" stroke-linecap="flat" stroke-linejoin="round" fill-rule="nonzero" />
  <path d="M40,33 H58 A4,4 0 0 1 62,37 V52 A4,4 0 0 1 58,56 H50 L44,62 V56 H40 A4,4 0 0 1 36,52 V37 A4,4 0 0 1 40,33 Z" fill="#000000" fill-opacity="0.149" fill-rule="nonzero" />
  <path d="M38,31 H56 A4,4 0 0 1 60,35 V50 A4,4 0 0 1 56,54 H48 L42,60 V54 H38 A4,4 0 0 1 34,50 V35 A4,4 0 0 1 38,31 Z" fill="url(#Id-Orange)" fill-rule="nonzero" />
  <path d="M41,49 L47,36 L53,49 M43.5,44 H50.5" fill="none" stroke="#FFFFFF" stroke-width="2.6" stroke-linecap="round" stroke-linejoin="round" fill-rule="nonzero" />
</svg>
