<svg xmlns="http://www.w3.org/2000/svg" viewBox="0 0 64 64" width="64" height="64">
<defs>
  <linearGradient id="Id-Gold" x1="0" y1="0" x2="1" y2="1">
    <stop offset="0" stop-color="#FFE18A" />
    <stop offset="0.55" stop-color="#F2B01E" />
    <stop offset="1" stop-color="#D48806" />
  </linearGradient>
</defs>
  <path d="M35,7 C50,7 61,18 61,31 C61,41 53,43 47,41 C42,39.5 39,43 41,48 C43,54 39,59 32,59 C18,59 7,47 7,33 C7,18 19,7 35,7 Z" fill="#6B4200" fill-opacity="0.165" fill-rule="nonzero" />
  <path d="M32,4 C47,4 58,15 58,28 C58,38 50,40 44,38 C39,36.5 36,40 38,45 C40,51 36,56 29,56 C15,56 4,44 4,30 C4,15 16,4 32,4 Z" fill="url(#Id-Gold)" fill-rule="nonzero" />
  <ellipse cx="20" cy="20" rx="5" ry="5" fill="#FF4D6D" />
  <ellipse cx="34" cy="15" rx="5" ry="5" fill="#2E86FF" />
  <ellipse cx="46" cy="24" rx="5" ry="5" fill="#1FBF73" />
  <ellipse cx="16" cy="35" rx="5" ry="5" fill="#9B5CF6" />
  <path d="M14,12 C19,7 26,6 31,6 C25,8 20,10 16,15 Z" fill="#FFFFFF" fill-opacity="0.502" fill-rule="nonzero" />
</svg>
